<svg t="1774160593447" class="icon" viewBox="0 0 1024 1024" version="1.1" xmlns="http://www.w3.org/2000/svg" p-id="14355" width="200" height="200"><path d="M700.16 192a32 32 0 0 1 32 32v541.376l107.968-86.4a32 32 0 0 1 40 50.048l-160 128a32 32 0 0 1-40 0l-160-128a32 32 0 0 1 40-50.048l108.032 86.4V224a32 32 0 0 1 32-32zM351.744 565.504a16 16 0 0 1 16 16v22.656a16 16 0 0 1-3.392 9.792l-128.128 166.016h123.52a16 16 0 0 1 16 16v23.68a16 16 0 0 1-16 16H168.32a16 16 0 0 1-15.68-12.8l-0.32-3.2v-22.4a16 16 0 0 1 3.328-9.728L284.16 621.184H178.304a16 16 0 0 1-16-16v-23.68a16 16 0 0 1 16-16h173.44zM285.44 195.072a16 16 0 0 1 14.912 10.112l93.696 238.08a16.064 16.064 0 0 1-14.848 21.952H349.44a16.128 16.128 0 0 1-14.976-10.368l-21.376-56.32H225.664l-21.312 56.32a16.064 16.064 0 0 1-14.976 10.368H160a16.128 16.128 0 0 1-13.248-7.04 16.064 16.064 0 0 1-1.6-14.848l93.696-238.08 2.432-4.16a16 16 0 0 1 12.416-6.016h31.68z m-96 254.08l25.344-66.624h109.376l25.344 66.688h29.696l-0.064-0.064H349.44l-25.344-66.688h-109.44l-25.344 66.688z m79.68-208.704h1.28l45.056 119.04-44.992-119.104h-1.28z m-22.4 103.04h45.632l-22.72-59.904-22.848 59.84z" p-id="14356"></path></svg>