<svg t="1782479891727" class="icon" viewBox="0 0 1024 1024" version="1.1" xmlns="http://www.w3.org/2000/svg" p-id="9159" width="200" height="200"><path d="M896 256H128c-25.6 0-42.666667-17.066667-42.666667-42.666667 0-21.333333 17.066667-42.666667 42.666667-42.666666h768c21.333333 0 42.666667 17.066667 42.666667 42.666666s-17.066667 42.666667-42.666667 42.666667zM896 554.666667H128c-21.333333 0-42.666667-17.066667-42.666667-42.666667 0-21.333333 17.066667-42.666667 42.666667-42.666667h768c21.333333 0 42.666667 17.066667 42.666667 42.666667s-17.066667 42.666667-42.666667 42.666667zM896 853.333333H128c-21.333333 0-42.666667-17.066667-42.666667-42.666666 0-21.333333 17.066667-42.666667 42.666667-42.666667h768c21.333333 0 42.666667 17.066667 42.666667 42.666667s-17.066667 42.666667-42.666667 42.666666z"  p-id="9160"></path></svg>