<svg t="1779204246569" class="icon" viewBox="0 0 1024 1024" version="1.1" xmlns="http://www.w3.org/2000/svg" p-id="4506" width="200" height="200"><path d="M503.464649 230.947195a228.133219 228.133219 0 0 1-45.483309 28.795004 347.229356 347.229356 0 0 1-48.861922 15.766864 231.614215 231.614215 0 0 0 21.269909 95.369054 166.371135 166.371135 0 0 0 74.943798 63.707346 156.440058 156.440058 0 0 0 74.227121-66.548453 247.022742 247.022742 0 0 0 20.143705-91.376147 259.155037 259.155037 0 0 1-96.188111-45.688073zM504.386089 816.62478c-138.21602 0-251.118031-89.584457-256.877032-204.124585a35.142703 35.142703 0 0 1 36.729628-33.683756 36.448076 36.448076 0 0 1 39.980263 30.970627c3.992907 79.704571 83.159972 142.13214 180.167141 142.13214s176.148638-62.427569 180.141545-142.13214a36.627245 36.627245 0 0 1 39.980264-30.970627 35.142703 35.142703 0 0 1 36.729627 33.683756c-5.835787 114.463341-118.456248 204.124584-256.851436 204.124585z" p-id="4507"></path><path d="M937.130208 626.552157H111.980571a38.393339 38.393339 0 0 1-28.948577-63.604964l87.536812-100.539357a343.825146 343.825146 0 0 1-18.55678-111.826998 356.59733 356.59733 0 0 1 713.092278 0 344.234675 344.234675 0 0 1-10.442988 84.311772l111.545447 127.977796a38.393339 38.393339 0 0 1-28.974173 63.604965z m-740.889056-76.786677h656.551688l-69.850281-80.165292a38.393339 38.393339 0 0 1-7.678667-37.011178 266.884895 266.884895 0 0 0 12.797779-81.90579 279.836248 279.836248 0 0 0-559.518923 0 268.036696 268.036696 0 0 0 21.218718 104.78822 38.393339 38.393339 0 0 1-6.424485 40.133836zM512.243926 1024C257.69609 1024 0.025596 954.380079 0.025596 821.308767c0-43.512451 28.564644-105.274535 164.605041-152.44715a38.393339 38.393339 0 0 1 25.160434 72.537814c-78.04086 27.054506-112.978798 59.637653-112.978798 79.909336C76.812273 871.424872 250.478142 947.213322 512.243926 947.213322s435.457248-75.788451 435.457248-125.904555c0-17.532958-26.747359-47.940482-102.07509-75.993215a38.393339 38.393339 0 0 1 26.79855-71.949117c125.674196 46.788682 152.063217 106.272762 152.063217 147.942332C1024.462256 954.380079 766.766166 1024 512.243926 1024z" p-id="4508"></path></svg>