<svg t="1779023490458" class="icon" viewBox="0 0 1024 1024" version="1.1" xmlns="http://www.w3.org/2000/svg" p-id="3382" width="200" height="200"><path d="M513 110.27c-228.83 0-415 180.77-415 402.96s186.17 402.95 415 402.95 415-180.76 415-402.95-186.17-402.96-415-402.96z m0 737.28c-190.99 0-346.36-149.98-346.36-334.33S322.02 178.9 513 178.9c190.98 0 346.36 149.98 346.36 334.33S703.99 847.55 513 847.55z" p-id="3383"></path><path d="M325.29 501.41l-30.25-4.32c-10.44-1.44-18.72-5.4-23.76-10.09-5.4-5.04-7.56-11.88-7.56-18.36 0-17.64 12.96-32.4 39.61-32.4 16.92 0 36.37 2.16 52.57 17.64l31.69-31.33c-21.97-21.24-47.53-29.89-82.82-29.89-55.45 0-89.31 32.05-89.31 77.78 0 21.6 6.12 38.17 18.36 50.41 11.52 11.16 27.73 18 49.69 21.25l30.97 4.32c11.88 1.8 17.65 4.32 22.69 9 5.4 5.04 7.92 12.6 7.92 21.6 0 20.52-15.84 31.69-45.37 31.69-23.76 0-45.73-5.4-61.94-21.6l-32.41 32.41c25.21 25.57 54.74 33.85 93.63 33.85 53.65 0 95.06-28.09 95.06-77.78 0-22.68-6.12-41.41-19.81-54.37-10.79-10.09-25.55-16.57-48.96-19.81zM535.95 501.41l-30.25-4.32c-10.44-1.44-18.72-5.4-23.76-10.09-5.4-5.04-7.56-11.88-7.56-18.36 0-17.64 12.96-32.4 39.61-32.4 16.92 0 36.36 2.16 52.57 17.64l31.69-31.33c-21.96-21.24-47.53-29.89-82.81-29.89-55.45 0-89.31 32.05-89.31 77.78 0 21.6 6.12 38.17 18.36 50.41 11.52 11.16 27.73 18 49.69 21.25l30.96 4.32c11.88 1.8 17.65 4.32 22.69 9 5.4 5.04 7.92 12.6 7.92 21.6 0 20.52-15.84 31.69-45.37 31.69-23.76 0-45.73-5.4-61.94-21.6l-32.41 32.41c25.21 25.57 54.74 33.85 93.63 33.85 53.65 0 95.06-28.09 95.06-77.78 0-22.68-6.13-41.41-19.81-54.37-10.79-10.09-25.55-16.57-48.96-19.81zM701.95 606.55V394.82H651.9V651.2h166.37v-44.65z" p-id="3384"></path></svg>