<svg t="1772808235425" class="icon" viewBox="0 0 1024 1024" version="1.1" xmlns="http://www.w3.org/2000/svg" p-id="2651" width="200" height="200"><path d="M252.240658 851.392877L77.12263 741.838904V273.562301L505.379068 28.054795l417.876165 245.914301v492.544L498.74411 1005.610082l-147.385863-92.202082V689.025753l-79.900055-49.993643V385.094137l231.36789-132.643069 226.093589 133.049864v266.099726l-178.989589 100.800876v-107.169315c53.654795-20.648329 92.16-73.770082 92.16-136.45852 0-80.797808-63.978959-145.688548-141.90115-145.688548S358.287781 427.989918 358.287781 508.773699c0 62.702466 38.505205 115.810192 92.16 136.472548v203.046575l51.2 32.01052 313.834959-176.759232v-367.938631l-310.819069-182.91726L184.895123 336.012274v346.126027l67.345535 42.138302v127.116274z m247.948274-409.557918c35.264877 0 63.151342 30.383342 63.151342 66.93874 0 36.569425-27.886466 66.952767-63.151342 66.952767s-63.151342-30.383342-63.151343-66.952767c0-36.555397 27.886466-66.93874 63.151343-66.93874z" p-id="2652"></path></svg>