<svg t="1772615828902" class="icon" viewBox="0 0 1024 1024" version="1.1" xmlns="http://www.w3.org/2000/svg" p-id="13430" width="200" height="200"><path d="M832 704H704v128c0 70.692-57.308 128-128 128H192c-70.692 0-128-57.308-128-128V448c0-70.692 57.308-128 128-128h128V192c0-70.692 57.308-128 128-128h384c70.692 0 128 57.308 128 128v384c0 70.692-57.308 128-128 128zM192 384c-35.346 0-64 28.654-64 64v384c0 35.346 28.654 64 64 64h384c35.346 0 64-28.654 64-64V448c0-35.346-28.654-64-64-64H192z m704-192c0-35.346-28.654-64-64-64H448c-35.346 0-64 28.654-64 64v128h192c70.692 0 128 57.308 128 128v192h128c35.346 0 64-28.654 64-64V192z" p-id="13431"></path></svg>