<svg t="1767598249864" class="icon" viewBox="0 0 1067 1024" version="1.1" xmlns="http://www.w3.org/2000/svg" p-id="9237" width="200" height="200"><path d="M699.986092 1023.996933H90.440968c-22.839719 0.194381-44.685937-8.844317-61.467462-25.366667C10.744927 980.693258 0.183582 955.197004 0 928.70725V462.485411c0.20518-26.511352 10.798922-51.986008 29.005903-69.912217a86.391372 86.391372 0 0 1 60.797928-25.301874h610.149864a86.391372 86.391372 0 0 1 60.88432 25.399064c18.206982 17.937009 28.746729 43.433262 28.919512 69.933816v466.167843c-0.183582 26.489754-10.744927 51.96441-28.951909 69.89062a86.391372 86.391372 0 0 1-60.819526 25.33427zM90.181794 960.596465H699.986092a23.347268 23.347268 0 0 0 16.349567-7.127288c6.274173-6.187782 9.935008-15.312871 10.021399-25.053498V462.863374c0-9.589442-3.714829-18.779325-10.021399-24.999504a23.379665 23.379665 0 0 0-16.381964-7.148886H89.803831a23.347268 23.347268 0 0 0-16.306371 7.084093c-6.295771 6.176983-9.956606 15.32367-10.053796 25.075096v465.433517c0.086391 9.773024 3.747226 18.91971 10.053796 25.118291a23.358067 23.358067 0 0 0 16.392763 7.148886h0.334766z" p-id="9238"></path><path d="M1066.998239 394.236228h-63.400469V244.3148c0-99.738839-81.143096-180.881935-180.881935-180.881935s-180.881935 81.143096-180.881935 180.881935v149.921428h-63.400468V244.3148C578.433432 109.619852 688.020887 0 822.715835 0s244.282403 109.619852 244.282404 244.3148z" p-id="9239"></path><path d="M394.203831 637.395543m-80.063204 0a80.063204 80.063204 0 1 0 160.126408 0 80.063204 80.063204 0 1 0-160.126408 0Z" p-id="9240"></path><path d="M353.923854 697.567134H431.95686v99.350078a19.945608 19.945608 0 0 1-19.945608 19.945608h-38.14179a19.945608 19.945608 0 0 1-19.945608-19.870016v-99.350078z" p-id="9241"></path></svg>